<svg xmlns="http://www.w3.org/2000/svg" xmlns:xlink="http://www.w3.org/1999/xlink" width="500" zoomAndPan="magnify" viewBox="0 0 375 374.999991" height="500" preserveAspectRatio="xMidYMid meet" version="1.0"><defs><g/></defs><rect x="-37.5" width="450" fill="#ffffff" y="-37.499999" height="449.999989" fill-opacity="1"/><rect x="-37.5" width="450" fill="#ffffff" y="-37.499999" height="449.999989" fill-opacity="1"/><g fill="#ff3131" fill-opacity="1"><g transform="translate(115.957027, 175.799974)"><g><path d="M 5.5625 -6.4375 C 3.453125 -6.4375 1.96875 -7.203125 1.109375 -8.828125 L 0.953125 -8.828125 L 0.953125 -0.046875 C 2.359375 0.28125 3.890625 0.484375 5.5625 0.484375 C 13.390625 0.484375 18.09375 -2.921875 18.09375 -12.234375 L 18.09375 -32.640625 L 10.890625 -32.640625 L 10.890625 -12.8125 C 10.890625 -9.40625 10.703125 -6.4375 5.5625 -6.4375 Z M 5.5625 -6.4375 "/></g></g></g><g fill="#ffffff" fill-opacity="1"><g transform="translate(136.453119, 175.799974)"><g><path d="M 19.4375 -10.5625 C 19.4375 -7.78125 17.28125 -5.28125 14.40625 -5.28125 C 11.515625 -5.28125 9.359375 -7.78125 9.359375 -10.5625 C 9.359375 -13.34375 11.515625 -15.84375 14.40625 -15.84375 C 17.28125 -15.84375 19.4375 -13.34375 19.4375 -10.5625 Z M 26.640625 -21.125 L 19.4375 -21.125 L 19.4375 -18.578125 C 17.5625 -20.875 14.875 -21.640625 12.1875 -21.640625 C 6.1875 -21.640625 1.6875 -16.421875 1.6875 -10.5625 C 1.6875 -4.703125 6.1875 0.484375 12.1875 0.484375 C 14.875 0.484375 18 -0.390625 19.4375 -2.546875 L 19.4375 0 L 26.640625 0 Z M 26.640625 -21.125 "/></g></g></g><g fill="#ffffff" fill-opacity="1"><g transform="translate(165.96592, 175.799974)"><g><path d="M 11.46875 12 L 16.078125 0 L 24.140625 -21.171875 L 16.84375 -21.171875 L 11.8125 -6.046875 L 6.765625 -21.171875 L -0.484375 -21.171875 L 7.578125 0 L 8.78125 0 L 3.984375 12 Z M 11.46875 12 "/></g></g></g><g fill="#ff3131" fill-opacity="1"><g transform="translate(189.632803, 175.799974)"><g><path d="M 10.078125 -11.65625 L 10.125 -11.65625 L 17.90625 0 L 27.03125 0 L 17.65625 -12 C 21.796875 -13.015625 25.109375 -16.65625 25.109375 -22.171875 C 25.109375 -28.375 20.40625 -32.640625 15.125 -32.640625 L 2.875 -32.640625 L 2.875 0 L 10.078125 0 Z M 13.921875 -26.96875 C 16.03125 -26.96875 18.234375 -25.15625 18.234375 -22.171875 C 18.234375 -19.0625 16.03125 -17.328125 13.921875 -17.328125 L 10.078125 -17.328125 L 10.078125 -26.96875 Z M 13.921875 -26.96875 "/></g></g></g><g fill="#ffffff" fill-opacity="1"><g transform="translate(216.082021, 175.799974)"><g><path d="M 19.4375 -10.5625 C 19.4375 -7.78125 17.28125 -5.28125 14.40625 -5.28125 C 11.515625 -5.28125 9.359375 -7.78125 9.359375 -10.5625 C 9.359375 -13.34375 11.515625 -15.84375 14.40625 -15.84375 C 17.28125 -15.84375 19.4375 -13.34375 19.4375 -10.5625 Z M 26.640625 -21.125 L 19.4375 -21.125 L 19.4375 -18.578125 C 17.5625 -20.875 14.875 -21.640625 12.1875 -21.640625 C 6.1875 -21.640625 1.6875 -16.421875 1.6875 -10.5625 C 1.6875 -4.703125 6.1875 0.484375 12.1875 0.484375 C 14.875 0.484375 18 -0.390625 19.4375 -2.546875 L 19.4375 0 L 26.640625 0 Z M 26.640625 -21.125 "/></g></g></g><g fill="#ffffff" fill-opacity="1"><g transform="translate(245.594821, 175.799974)"><g><path d="M -1.15625 11.421875 C 0 11.8125 1.25 12 2.296875 12 C 8.203125 12 10.5625 6.8125 10.5625 1.578125 L 10.5625 -21.171875 L 2.875 -21.171875 L 2.875 1.390625 C 2.875 3.171875 3.125 5.28125 1.015625 5.28125 C -0.09375 5.28125 -1.15625 4.515625 -1.15625 4.515625 Z M 2.5 -28.421875 C 2.5 -26.109375 4.421875 -24.1875 6.71875 -24.1875 C 9.03125 -24.1875 10.9375 -26.109375 10.9375 -28.421875 C 10.9375 -30.765625 9.03125 -32.640625 6.71875 -32.640625 C 4.421875 -32.640625 2.5 -30.765625 2.5 -28.421875 Z M 2.5 -28.421875 "/></g></g></g></svg>